<svg width="40" height="40" viewBox="0 0 40 40" fill="none" xmlns="http://www.w3.org/2000/svg">
<path d="M0 8C0 3.58172 3.58172 0 8 0H31.9902C36.4085 0 39.9902 3.58172 39.9902 8V31.9902C39.9902 36.4085 36.4085 39.9902 31.9902 39.9902H8C3.58172 39.9902 0 36.4085 0 31.9902V8Z" fill="#E0E7FF"/>
<path d="M11.9971 21.9946C11.8079 21.9953 11.6224 21.9422 11.4621 21.8416C11.3019 21.741 11.1735 21.5971 11.0918 21.4264C11.0102 21.2557 10.9786 21.0654 11.0008 20.8775C11.023 20.6897 11.0981 20.5119 11.2173 20.365L21.1148 10.1675C21.1891 10.0818 21.2903 10.0239 21.4017 10.0033C21.5132 9.98265 21.6284 10.0005 21.7284 10.054C21.8284 10.1075 21.9072 10.1934 21.952 10.2976C21.9967 10.4018 22.0047 10.5181 21.9746 10.6274L20.0551 16.6459C19.9985 16.7974 19.9795 16.9604 19.9997 17.1208C20.0199 17.2813 20.0787 17.4344 20.1712 17.5671C20.2636 17.6998 20.3868 17.8081 20.5303 17.8828C20.6737 17.9574 20.8331 17.9961 20.9949 17.9956H27.9932C28.1823 17.9949 28.3678 18.048 28.5281 18.1486C28.6883 18.2491 28.8167 18.3931 28.8984 18.5638C28.98 18.7344 29.0116 18.9248 28.9894 19.1127C28.9672 19.3005 28.8922 19.4783 28.773 19.6252L18.8754 29.8227C18.8011 29.9084 18.7 29.9663 18.5885 29.9869C18.477 30.0075 18.3618 29.9896 18.2618 29.9362C18.1618 29.8827 18.083 29.7968 18.0383 29.6926C17.9935 29.5884 17.9855 29.4721 18.0156 29.3628L19.9351 23.3443C19.9917 23.1928 20.0107 23.0298 19.9905 22.8694C19.9703 22.7089 19.9115 22.5558 19.8191 22.4231C19.7267 22.2904 19.6034 22.182 19.46 22.1074C19.3165 22.0328 19.1571 21.9941 18.9954 21.9946H11.9971Z" stroke="#4F46E5" stroke-width="2" stroke-linecap="round" stroke-linejoin="round"/>
</svg>
