<svg width="6" height="4" viewBox="0 0 6 4" fill="none" xmlns="http://www.w3.org/2000/svg">
<mask id="path-1-inside-1_1_564" fill="white">
<path fill-rule="evenodd" clip-rule="evenodd" d="M5.41351 0.128139C5.58437 0.298992 5.58437 0.576005 5.41351 0.74684L3.08017 3.08017C2.90932 3.25103 2.63235 3.25103 2.46149 3.08017L0.128139 0.74684C-0.0427131 0.576005 -0.0427131 0.298992 0.128139 0.128139C0.298992 -0.0427131 0.576005 -0.0427131 0.746858 0.128139L2.77083 2.15209L4.79482 0.128139C4.96568 -0.0427131 5.24265 -0.0427131 5.41351 0.128139Z"/>
</mask>
<path fill-rule="evenodd" clip-rule="evenodd" d="M5.41351 0.128139C5.58437 0.298992 5.58437 0.576005 5.41351 0.74684L3.08017 3.08017C2.90932 3.25103 2.63235 3.25103 2.46149 3.08017L0.128139 0.74684C-0.0427131 0.576005 -0.0427131 0.298992 0.128139 0.128139C0.298992 -0.0427131 0.576005 -0.0427131 0.746858 0.128139L2.77083 2.15209L4.79482 0.128139C4.96568 -0.0427131 5.24265 -0.0427131 5.41351 0.128139Z" fill="black"/>
<path d="M5.41351 0.74684L4.70645 0.0396851L4.7064 0.0397333L5.41351 0.74684ZM3.08017 3.08017L2.37307 2.37307V2.37307L3.08017 3.08017ZM2.46149 3.08017L3.1686 2.37307L3.16859 2.37306L2.46149 3.08017ZM0.128139 0.74684L0.835244 0.0397307L0.83521 0.0396971L0.128139 0.74684ZM0.746858 0.128139L0.0397509 0.835246L0.039755 0.83525L0.746858 0.128139ZM2.77083 2.15209L2.06373 2.8592L2.77083 3.56629L3.47793 2.8592L2.77083 2.15209ZM4.79482 0.128139L4.08773 -0.578979L4.08772 -0.578975L4.79482 0.128139ZM5.41351 0.128139L4.70641 0.835258C4.48675 0.615604 4.4867 0.259405 4.70645 0.0396851L5.41351 0.74684L6.12057 1.454C6.68203 0.892605 6.68198 -0.0176199 6.1206 -0.578979L5.41351 0.128139ZM5.41351 0.74684L4.7064 0.0397333L2.37307 2.37307L3.08017 3.08017L3.78728 3.78728L6.12061 1.45395L5.41351 0.74684ZM3.08017 3.08017L2.37307 2.37307C2.59273 2.1534 2.94893 2.1534 3.1686 2.37307L2.46149 3.08017L1.75438 3.78728C2.31577 4.34866 3.2259 4.34866 3.78728 3.78728L3.08017 3.08017ZM2.46149 3.08017L3.16859 2.37306L0.835244 0.0397307L0.128139 0.74684L-0.578965 1.45395L1.75439 3.78728L2.46149 3.08017ZM0.128139 0.74684L0.83521 0.0396971C1.05495 0.259415 1.0549 0.615594 0.835246 0.835246L0.128139 0.128139L-0.578967 -0.578967C-1.14032 -0.0176106 -1.14038 0.892596 -0.578931 1.45398L0.128139 0.74684ZM0.128139 0.128139L0.835246 0.835246C0.615574 1.05492 0.259423 1.05492 0.0397509 0.835246L0.746858 0.128139L1.45396 -0.578967C0.892588 -1.14034 -0.0175906 -1.14034 -0.578967 -0.578967L0.128139 0.128139ZM0.746858 0.128139L0.039755 0.83525L2.06373 2.8592L2.77083 2.15209L3.47793 1.44498L1.45396 -0.578972L0.746858 0.128139ZM2.77083 2.15209L3.47793 2.8592L5.50192 0.835253L4.79482 0.128139L4.08772 -0.578975L2.06373 1.44498L2.77083 2.15209ZM4.79482 0.128139L5.50192 0.835258C5.28226 1.05491 4.92608 1.05491 4.70641 0.835258L5.41351 0.128139L6.1206 -0.578979C5.55922 -1.14034 4.64911 -1.14034 4.08773 -0.578979L4.79482 0.128139Z" fill="black" mask="url(#path-1-inside-1_1_564)"/>
</svg>
