<svg width="48" height="49" viewBox="0 0 48 49" fill="none" xmlns="http://www.w3.org/2000/svg">
<path d="M9.25391 14.0755C9.25391 11.4083 11.4161 9.24609 14.0833 9.24609H41.68C44.3472 9.24609 46.5094 11.4083 46.5094 14.0755V43.1234C46.5094 45.7906 44.3472 47.9528 41.68 47.9528H14.0833C11.4161 47.9528 9.25391 45.7906 9.25391 43.1234V14.0755Z" fill="#F7F7F8" stroke="#D6D6D6" stroke-width="1.37983"/>
<path d="M8.22657 1.62983C7.93964 1.07704 7.2589 0.861512 6.70611 1.14845V1.14845C6.15331 1.43538 5.93779 2.11612 6.22472 2.66891L7.94736 5.98769C8.2343 6.54049 8.91503 6.75601 9.46783 6.46908V6.46908C10.0206 6.18214 10.2361 5.50141 9.94921 4.94861L8.22657 1.62983Z" stroke="#D6D6D6" stroke-width="1.37983" stroke-linejoin="round"/>
<path d="M2.36802 6.53564C1.81096 6.25707 1.13355 6.48284 0.854987 7.0399V7.0399C0.576421 7.59696 0.802185 8.27436 1.35924 8.55293L4.70362 10.2253C5.26068 10.5039 5.93809 10.2781 6.21665 9.72108V9.72108C6.49522 9.16402 6.26946 8.48661 5.7124 8.20804L2.36802 6.53564Z" stroke="#D6D6D6" stroke-width="1.37983" stroke-linejoin="round"/>
<path d="M17.6016 9.24635H23.7038V8.92519C23.7038 6.61929 25.573 4.75 27.8789 4.75C30.1848 4.75 32.0541 6.61929 32.0541 8.92519V9.24635H38.1563V10.2931C38.1563 12.1983 36.6119 13.7427 34.7067 13.7427H21.0511C19.146 13.7427 17.6016 12.1983 17.6016 10.2931V9.24635Z" fill="#D6D6D6"/>
<rect x="24.6562" y="22.0898" width="13.7983" height="2.06975" rx="1.03487" fill="#D6D6D6" stroke="#D6D6D6" stroke-width="1.37983" stroke-linejoin="round"/>
<rect x="24.6562" y="30.168" width="13.7983" height="2.06975" rx="1.03487" stroke="#D6D6D6" stroke-width="1.37983" stroke-linejoin="round"/>
<rect x="24.6562" y="38.6094" width="13.7983" height="2.06975" rx="1.03487" stroke="#D6D6D6" stroke-width="1.37983" stroke-linejoin="round"/>
<rect x="16.9492" y="21.125" width="3.85402" height="3.85402" rx="1.37983" fill="#D6D6D6" stroke="#D6D6D6" stroke-width="1.37983" stroke-linejoin="round"/>
<rect x="16.9492" y="29.2051" width="3.85402" height="3.85402" rx="1.37983" stroke="#D6D6D6" stroke-width="1.37983" stroke-linejoin="round"/>
<rect x="16.9492" y="37.6465" width="3.85402" height="3.85402" rx="1.37983" stroke="#D6D6D6" stroke-width="1.37983" stroke-linejoin="round"/>
</svg>
