<svg width="109" height="28" viewBox="0 0 109 28" fill="none" xmlns="http://www.w3.org/2000/svg">
<path d="M3.99902 16.9983C3.99902 16.9983 4.99878 15.9985 7.99805 15.9985C10.9973 15.9985 12.9968 17.998 15.9961 17.998C18.9954 17.998 19.9951 16.9983 19.9951 16.9983V5.00122C19.9951 5.00122 18.9954 6.00098 15.9961 6.00098C12.9968 6.00098 10.9973 4.00146 7.99805 4.00146C4.99878 4.00146 3.99902 5.00122 3.99902 5.00122V16.9983Z" stroke="#6366F1" stroke-width="2" stroke-linecap="round" stroke-linejoin="round"/>
<path d="M3.99902 23.9966V16.9983" stroke="#6366F1" stroke-width="2" stroke-linecap="round" stroke-linejoin="round"/>
<path d="M37.0609 20V7.63636H45.247V9.79155H39.6749V12.7376H44.7037V14.8928H39.6749V20H37.0609ZM49.5287 7.63636V20H46.9569V7.63636H49.5287ZM54.233 20.1751C53.6413 20.1751 53.1141 20.0724 52.6513 19.8672C52.1884 19.6579 51.8222 19.35 51.5526 18.9435C51.2869 18.533 51.1541 18.0219 51.1541 17.4102C51.1541 16.895 51.2487 16.4624 51.4379 16.1122C51.627 15.7621 51.8846 15.4804 52.2106 15.267C52.5366 15.0537 52.9068 14.8928 53.3214 14.7841C53.7399 14.6754 54.1786 14.599 54.6374 14.5547C55.1767 14.4983 55.6114 14.446 55.9414 14.3977C56.2714 14.3454 56.5109 14.2689 56.6598 14.1683C56.8087 14.0677 56.8832 13.9188 56.8832 13.7216V13.6854C56.8832 13.303 56.7624 13.0072 56.521 12.7979C56.2835 12.5887 55.9454 12.484 55.5067 12.484C55.0439 12.484 54.6757 12.5866 54.402 12.7919C54.1283 12.9931 53.9472 13.2467 53.8587 13.5526L51.4801 13.3594C51.6009 12.7959 51.8383 12.3089 52.1925 11.8984C52.5466 11.4839 53.0034 11.166 53.5629 10.9446C54.1263 10.7192 54.7783 10.6065 55.5188 10.6065C56.034 10.6065 56.527 10.6669 56.9979 10.7876C57.4728 10.9084 57.8933 11.0955 58.2596 11.3491C58.6299 11.6026 58.9216 11.9286 59.1349 12.3271C59.3482 12.7215 59.4549 13.1944 59.4549 13.7457V20H57.016V18.7141H56.9435C56.7946 19.0039 56.5954 19.2595 56.3459 19.4808C56.0964 19.6982 55.7965 19.8692 55.4464 19.994C55.0962 20.1147 54.6918 20.1751 54.233 20.1751ZM54.9695 18.4002C55.3478 18.4002 55.6818 18.3258 55.9716 18.1768C56.2614 18.0239 56.4888 17.8187 56.6538 17.5611C56.8188 17.3035 56.9013 17.0117 56.9013 16.6857V15.7017C56.8208 15.754 56.7101 15.8023 56.5692 15.8466C56.4324 15.8868 56.2775 15.9251 56.1044 15.9613C55.9313 15.9935 55.7583 16.0237 55.5852 16.0518C55.4122 16.076 55.2552 16.0981 55.1143 16.1183C54.8125 16.1625 54.5489 16.233 54.3235 16.3295C54.0981 16.4261 53.9231 16.5569 53.7983 16.7219C53.6735 16.8829 53.6112 17.0842 53.6112 17.3256C53.6112 17.6758 53.7379 17.9434 53.9915 18.1286C54.2491 18.3097 54.575 18.4002 54.9695 18.4002ZM65.6277 23.6705C64.7946 23.6705 64.0802 23.5558 63.4846 23.3263C62.8929 23.101 62.4221 22.7931 62.0719 22.4027C61.7218 22.0123 61.4944 21.5736 61.3897 21.0866L63.7683 20.7667C63.8407 20.9518 63.9554 21.1249 64.1124 21.2859C64.2694 21.4469 64.4766 21.5756 64.7342 21.6722C64.9958 21.7728 65.3137 21.8232 65.688 21.8232C66.2475 21.8232 66.7083 21.6863 67.0705 21.4126C67.4367 21.143 67.6199 20.6902 67.6199 20.0543V18.358H67.5112C67.3985 18.6155 67.2295 18.859 67.0041 19.0884C66.7787 19.3178 66.4889 19.505 66.1348 19.6499C65.7806 19.7947 65.358 19.8672 64.867 19.8672C64.1708 19.8672 63.5369 19.7062 62.9654 19.3842C62.3979 19.0582 61.9451 18.5612 61.6071 17.8931C61.273 17.221 61.106 16.3718 61.106 15.3455C61.106 14.2951 61.277 13.4177 61.6191 12.7134C61.9612 12.0091 62.416 11.4819 62.9835 11.1317C63.555 10.7816 64.1808 10.6065 64.861 10.6065C65.3801 10.6065 65.8148 10.6951 66.165 10.8722C66.5151 11.0452 66.7968 11.2625 67.0101 11.5241C67.2275 11.7817 67.3945 12.0353 67.5112 12.2848H67.6078V10.7273H70.1614V20.0906C70.1614 20.8794 69.9682 21.5394 69.5819 22.0707C69.1955 22.6019 68.6602 23.0004 67.976 23.266C67.2959 23.5356 66.5131 23.6705 65.6277 23.6705ZM65.682 17.9354C66.0965 17.9354 66.4467 17.8327 66.7324 17.6275C67.0222 17.4182 67.2435 17.1204 67.3965 16.734C67.5534 16.3436 67.6319 15.8768 67.6319 15.3335C67.6319 14.7901 67.5555 14.3192 67.4025 13.9208C67.2496 13.5183 67.0282 13.2064 66.7385 12.9851C66.4487 12.7637 66.0965 12.6531 65.682 12.6531C65.2594 12.6531 64.9032 12.7678 64.6135 12.9972C64.3237 13.2225 64.1043 13.5365 63.9554 13.9389C63.8065 14.3414 63.7321 14.8062 63.7321 15.3335C63.7321 15.8687 63.8065 16.3316 63.9554 16.7219C64.1084 17.1083 64.3277 17.4081 64.6135 17.6214C64.9032 17.8307 65.2594 17.9354 65.682 17.9354ZM83.6177 13.8182C83.6177 15.1664 83.3622 16.3134 82.851 17.2592C82.3439 18.205 81.6517 18.9274 80.7743 19.4265C79.901 19.9215 78.919 20.169 77.8283 20.169C76.7296 20.169 75.7435 19.9195 74.8702 19.4205C73.9969 18.9214 73.3066 18.199 72.7995 17.2532C72.2924 16.3074 72.0389 15.1624 72.0389 13.8182C72.0389 12.4699 72.2924 11.3229 72.7995 10.3771C73.3066 9.43134 73.9969 8.71094 74.8702 8.21591C75.7435 7.71686 76.7296 7.46733 77.8283 7.46733C78.919 7.46733 79.901 7.71686 80.7743 8.21591C81.6517 8.71094 82.3439 9.43134 82.851 10.3771C83.3622 11.3229 83.6177 12.4699 83.6177 13.8182ZM80.9675 13.8182C80.9675 12.9448 80.8367 12.2083 80.5751 11.6087C80.3175 11.009 79.9533 10.5542 79.4824 10.2443C79.0115 9.93442 78.4602 9.77947 77.8283 9.77947C77.1964 9.77947 76.6451 9.93442 76.1742 10.2443C75.7033 10.5542 75.3371 11.009 75.0755 11.6087C74.8179 12.2083 74.6891 12.9448 74.6891 13.8182C74.6891 14.6915 74.8179 15.428 75.0755 16.0277C75.3371 16.6274 75.7033 17.0821 76.1742 17.392C76.6451 17.7019 77.1964 17.8569 77.8283 17.8569C78.4602 17.8569 79.0115 17.7019 79.4824 17.392C79.9533 17.0821 80.3175 16.6274 80.5751 16.0277C80.8367 15.428 80.9675 14.6915 80.9675 13.8182ZM85.5058 23.4773V10.7273H88.0413V12.2848H88.156C88.2687 12.0353 88.4317 11.7817 88.645 11.5241C88.8623 11.2625 89.144 11.0452 89.4901 10.8722C89.8403 10.6951 90.2749 10.6065 90.7941 10.6065C91.4703 10.6065 92.0941 10.7836 92.6656 11.1378C93.2371 11.4879 93.6939 12.0172 94.036 12.7255C94.378 13.4298 94.5491 14.3132 94.5491 15.3757C94.5491 16.41 94.3821 17.2834 94.048 17.9957C93.718 18.7041 93.2673 19.2414 92.6958 19.6076C92.1283 19.9698 91.4924 20.1509 90.7881 20.1509C90.289 20.1509 89.8644 20.0684 89.5143 19.9034C89.1682 19.7384 88.8844 19.5311 88.6631 19.2816C88.4417 19.0281 88.2727 18.7725 88.156 18.5149H88.0775V23.4773H85.5058ZM88.0232 15.3636C88.0232 15.915 88.0996 16.396 88.2526 16.8065C88.4055 17.217 88.6269 17.5369 88.9166 17.7663C89.2064 17.9917 89.5586 18.1044 89.9731 18.1044C90.3917 18.1044 90.7458 17.9897 91.0356 17.7603C91.3254 17.5269 91.5447 17.2049 91.6936 16.7944C91.8466 16.3799 91.923 15.9029 91.923 15.3636C91.923 14.8284 91.8486 14.3575 91.6997 13.951C91.5508 13.5445 91.3314 13.2266 91.0416 12.9972C90.7519 12.7678 90.3957 12.6531 89.9731 12.6531C89.5545 12.6531 89.2004 12.7637 88.9106 12.9851C88.6249 13.2064 88.4055 13.5204 88.2526 13.9268C88.0996 14.3333 88.0232 14.8123 88.0232 15.3636ZM103.979 13.3714L101.624 13.5163C101.584 13.3151 101.498 13.134 101.365 12.973C101.232 12.808 101.057 12.6772 100.84 12.5806C100.626 12.48 100.371 12.4297 100.073 12.4297C99.6744 12.4297 99.3384 12.5142 99.0647 12.6832C98.791 12.8482 98.6542 13.0696 98.6542 13.3473C98.6542 13.5687 98.7427 13.7558 98.9198 13.9087C99.0969 14.0617 99.4008 14.1844 99.8314 14.277L101.51 14.6151C102.411 14.8002 103.083 15.098 103.526 15.5085C103.969 15.919 104.19 16.4583 104.19 17.1264C104.19 17.7341 104.011 18.2674 103.653 18.7262C103.299 19.185 102.812 19.5432 102.192 19.8008C101.576 20.0543 100.866 20.1811 100.061 20.1811C98.8333 20.1811 97.8553 19.9255 97.1269 19.4144C96.4024 18.8993 95.9778 18.199 95.8531 17.3136L98.3825 17.1808C98.459 17.555 98.6441 17.8408 98.9379 18.038C99.2317 18.2312 99.608 18.3278 100.067 18.3278C100.518 18.3278 100.88 18.2412 101.153 18.0682C101.431 17.8911 101.572 17.6637 101.576 17.386C101.572 17.1526 101.473 16.9614 101.28 16.8125C101.087 16.6596 100.789 16.5429 100.387 16.4624L98.781 16.1424C97.8754 15.9613 97.2013 15.6474 96.7586 15.2006C96.3199 14.7539 96.1006 14.1844 96.1006 13.4922C96.1006 12.8965 96.2616 12.3834 96.5835 11.9528C96.9095 11.5221 97.3663 11.1901 97.9539 10.9567C98.5455 10.7232 99.2378 10.6065 100.031 10.6065C101.202 10.6065 102.123 10.854 102.796 11.3491C103.472 11.8441 103.866 12.5182 103.979 13.3714Z" fill="white"/>
</svg>
