<svg width="40" height="40" viewBox="0 0 40 40" fill="none" xmlns="http://www.w3.org/2000/svg">
<path d="M0 8C0 3.58172 3.58172 0 8 0H31.9902C36.4085 0 39.9902 3.58172 39.9902 8V31.9902C39.9902 36.4085 36.4085 39.9902 31.9902 39.9902H8C3.58172 39.9902 0 36.4085 0 31.9902V8Z" fill="#FEF3C7"/>
<path d="M29.7227 25.9936L21.7247 11.997C21.5503 11.6893 21.2974 11.4334 20.9918 11.2553C20.6862 11.0772 20.3388 10.9834 19.9851 10.9834C19.6314 10.9834 19.284 11.0772 18.9784 11.2553C18.6728 11.4334 18.4199 11.6893 18.2455 11.997L10.2475 25.9936C10.0712 26.2989 9.97878 26.6454 9.97956 26.9979C9.98034 27.3504 10.0743 27.6965 10.2519 28.001C10.4296 28.3055 10.6845 28.5576 10.991 28.7318C11.2975 28.906 11.6445 28.9961 11.9971 28.9929H27.9932C28.344 28.9925 28.6885 28.8999 28.9922 28.7242C29.2959 28.5486 29.548 28.2962 29.7232 27.9923C29.8985 27.6884 29.9907 27.3437 29.9906 26.9929C29.9905 26.6421 29.8981 26.2974 29.7227 25.9936Z" stroke="#D97706" stroke-width="2" stroke-linecap="round" stroke-linejoin="round"/>
<path d="M19.9951 16.9958V20.9958" stroke="#D97706" stroke-width="2" stroke-linecap="round" stroke-linejoin="round"/>
<path d="M19.9951 24.9939H20.0051" stroke="#D97706" stroke-width="2" stroke-linecap="round" stroke-linejoin="round"/>
</svg>
