<svg width="40" height="40" viewBox="0 0 40 40" fill="none" xmlns="http://www.w3.org/2000/svg">
<path d="M0 8C0 3.58172 3.58172 0 8 0H31.9902C36.4085 0 39.9902 3.58172 39.9902 8V31.9902C39.9902 36.4085 36.4085 39.9902 31.9902 39.9902H8C3.58172 39.9902 0 36.4085 0 31.9902V8Z" fill="#DCFCE7"/>
<path d="M29.9927 19.9951H27.5133C27.0764 19.9942 26.6512 20.1364 26.3027 20.4C25.9542 20.6636 25.7017 21.0341 25.5838 21.4548L23.2343 29.8127C23.2192 29.8646 23.1876 29.9102 23.1443 29.9427C23.1011 29.9751 23.0485 29.9927 22.9944 29.9927C22.9403 29.9927 22.8877 29.9751 22.8444 29.9427C22.8012 29.9102 22.7696 29.8646 22.7544 29.8127L17.2358 10.1775C17.2206 10.1256 17.1891 10.08 17.1458 10.0475C17.1025 10.0151 17.0499 9.99756 16.9958 9.99756C16.9418 9.99756 16.8892 10.0151 16.8459 10.0475C16.8026 10.08 16.7711 10.1256 16.7559 10.1775L14.4065 18.5355C14.289 18.9545 14.038 19.3238 13.6915 19.5872C13.3451 19.8507 12.9222 19.9939 12.487 19.9951H9.99756" stroke="#16A34A" stroke-width="2" stroke-linecap="round" stroke-linejoin="round"/>
</svg>
