<svg width="40" height="40" viewBox="0 0 40 40" fill="none" xmlns="http://www.w3.org/2000/svg">
<path d="M0 8C0 3.58172 3.58172 0 8 0H31.9902C36.4085 0 39.9902 3.58172 39.9902 8V31.9902C39.9902 36.4085 36.4085 39.9902 31.9902 39.9902H8C3.58172 39.9902 0 36.4085 0 31.9902V8Z" fill="#DBEAFE"/>
<path d="M23.9941 28.9929V26.9934C23.9941 25.9328 23.5728 24.9156 22.8229 24.1657C22.0729 23.4157 21.0557 22.9944 19.9951 22.9944H13.9966C12.936 22.9944 11.9188 23.4157 11.1688 24.1657C10.4189 24.9156 9.99756 25.9328 9.99756 26.9934V28.9929" stroke="#2563EB" stroke-width="2" stroke-linecap="round" stroke-linejoin="round"/>
<path d="M23.9941 11.1253C24.8519 11.3476 25.6115 11.8484 26.1538 12.549C26.6961 13.2496 26.9903 14.1105 26.9903 14.9964C26.9903 15.8823 26.6961 16.7431 26.1538 17.4437C25.6115 18.1443 24.8519 18.6451 23.9941 18.8674" stroke="#2563EB" stroke-width="2" stroke-linecap="round" stroke-linejoin="round"/>
<path d="M29.9934 28.9929V26.9934C29.9927 26.1073 29.6978 25.2466 29.1548 24.5463C28.6118 23.846 27.8515 23.3458 26.9934 23.1243" stroke="#2563EB" stroke-width="2" stroke-linecap="round" stroke-linejoin="round"/>
<path d="M16.9958 18.9954C19.2044 18.9954 20.9949 17.2049 20.9949 14.9963C20.9949 12.7877 19.2044 10.9973 16.9958 10.9973C14.7872 10.9973 12.9968 12.7877 12.9968 14.9963C12.9968 17.2049 14.7872 18.9954 16.9958 18.9954Z" stroke="#2563EB" stroke-width="2" stroke-linecap="round" stroke-linejoin="round"/>
</svg>
