<svg width="72" height="72" viewBox="0 0 72 72" fill="none" xmlns="http://www.w3.org/2000/svg">
<g filter="url(#filter0_dd_1_6)">
<path d="M12 10C12 5.58172 15.5817 2 20 2H51.998C56.4163 2 59.998 5.58172 59.998 10V41.998C59.998 46.4163 56.4163 49.998 51.998 49.998H20C15.5817 49.998 12 46.4163 12 41.998V10Z" fill="#4F46E5"/>
<path d="M28.001 28.9983C28.001 28.9983 29.0007 27.9985 32 27.9985C34.9993 27.9985 36.9988 29.998 39.998 29.998C42.9973 29.998 43.9971 28.9983 43.9971 28.9983V17.0012C43.9971 17.0012 42.9973 18.001 39.998 18.001C36.9988 18.001 34.9993 16.0015 32 16.0015C29.0007 16.0015 28.001 17.0012 28.001 17.0012V28.9983Z" stroke="white" stroke-width="2" stroke-linecap="round" stroke-linejoin="round"/>
<path d="M28.001 35.9966V28.9983" stroke="white" stroke-width="2" stroke-linecap="round" stroke-linejoin="round"/>
</g>
<defs>
<filter id="filter0_dd_1_6" x="0" y="0" width="71.998" height="71.998" filterUnits="userSpaceOnUse" color-interpolation-filters="sRGB">
<feFlood flood-opacity="0" result="BackgroundImageFix"/>
<feColorMatrix in="SourceAlpha" type="matrix" values="0 0 0 0 0 0 0 0 0 0 0 0 0 0 0 0 0 0 127 0" result="hardAlpha"/>
<feMorphology radius="3" operator="erode" in="SourceAlpha" result="effect1_dropShadow_1_6"/>
<feOffset dy="10"/>
<feGaussianBlur stdDeviation="7.5"/>
<feColorMatrix type="matrix" values="0 0 0 0 0 0 0 0 0 0 0 0 0 0 0 0 0 0 0.1 0"/>
<feBlend mode="normal" in2="BackgroundImageFix" result="effect1_dropShadow_1_6"/>
<feColorMatrix in="SourceAlpha" type="matrix" values="0 0 0 0 0 0 0 0 0 0 0 0 0 0 0 0 0 0 127 0" result="hardAlpha"/>
<feMorphology radius="4" operator="erode" in="SourceAlpha" result="effect2_dropShadow_1_6"/>
<feOffset dy="4"/>
<feGaussianBlur stdDeviation="3"/>
<feColorMatrix type="matrix" values="0 0 0 0 0 0 0 0 0 0 0 0 0 0 0 0 0 0 0.1 0"/>
<feBlend mode="normal" in2="effect1_dropShadow_1_6" result="effect2_dropShadow_1_6"/>
<feBlend mode="normal" in="SourceGraphic" in2="effect2_dropShadow_1_6" result="shape"/>
</filter>
</defs>
</svg>
